<mxfile host="app.diagrams.net" modified="2023-05-08T16:27:12.490Z" agent="Mozilla/5.0 (X11; Ubuntu; Linux x86_64; rv:109.0) Gecko/20100101 Firefox/112.0" etag="ttdcone602PjmRYue752" version="21.2.9" type="github">
  <diagram name="Page-1" id="UrAOD6k8fKv2funcCNdR">
    <mxGraphModel dx="1640" dy="1472" grid="1" gridSize="10" guides="1" tooltips="1" connect="1" arrows="1" fold="1" page="0" pageScale="1" pageWidth="850" pageHeight="1100" math="0" shadow="0">
      <root>
        <mxCell id="0" />
        <mxCell id="1" parent="0" />
        <mxCell id="T0WTCyAwHoFXnaM4Mq35-11" value="&lt;div&gt;172.16.182.126/27&lt;span style=&quot;white-space: pre;&quot;&gt;	&lt;/span&gt;&lt;span style=&quot;white-space: pre;&quot;&gt;	&lt;/span&gt;&lt;span style=&quot;white-space: pre;&quot;&gt;	&lt;/span&gt;&lt;span style=&quot;white-space: pre;&quot;&gt;(.97-.126)&lt;/span&gt;&lt;span style=&quot;white-space: pre;&quot;&gt;	Hosts&lt;/span&gt;&amp;nbsp;&amp;nbsp;&amp;nbsp;&amp;nbsp;&amp;nbsp;&amp;nbsp;&amp;nbsp;&amp;nbsp;&amp;nbsp;&amp;nbsp;&amp;nbsp; &lt;br&gt;&lt;/div&gt;" style="text;html=1;strokeColor=none;fillColor=none;align=center;verticalAlign=middle;whiteSpace=wrap;rounded=0;" vertex="1" parent="1">
          <mxGeometry x="1080" y="590" width="390" height="30" as="geometry" />
        </mxCell>
        <mxCell id="CTcJU4yGuNOKdw21YTPw-1" value="&lt;div&gt;HOSTNAME&lt;/div&gt;&lt;div&gt;IP(S)&lt;/div&gt;&lt;div&gt;PORTS&lt;/div&gt;&lt;div&gt;TOOLS&lt;/div&gt;&lt;div&gt;CREDENTIALS&lt;/div&gt;" style="rounded=0;whiteSpace=wrap;html=1;" parent="1" vertex="1">
          <mxGeometry x="509" y="-205" width="120" height="90" as="geometry" />
        </mxCell>
        <mxCell id="CTcJU4yGuNOKdw21YTPw-2" value="&lt;div&gt;internet-host&lt;br&gt;&lt;/div&gt;&lt;div&gt;10.50.37.59&lt;/div&gt;&lt;div&gt;eth0: 10.10.0.60/27&lt;/div&gt;&lt;div&gt;21,22,23,80&lt;/div&gt;&lt;div&gt;&lt;br&gt;&lt;/div&gt;&lt;div&gt;wget-wireshark-telnet-ssh-nmap-tcpdump&lt;/div&gt;&lt;div&gt;&lt;br&gt;&lt;/div&gt;&lt;div&gt;student : password&lt;br&gt;&lt;/div&gt;" style="rounded=0;whiteSpace=wrap;html=1;movable=1;resizable=1;rotatable=1;deletable=1;editable=1;locked=0;connectable=1;" parent="1" vertex="1">
          <mxGeometry x="317" y="-240" width="172" height="160" as="geometry" />
        </mxCell>
        <mxCell id="CTcJU4yGuNOKdw21YTPw-8" value="&lt;div&gt;172.16.182.110&lt;/div&gt;&lt;div&gt;22,80&lt;/div&gt;&lt;div&gt;&lt;br&gt;&lt;/div&gt;" style="rounded=0;whiteSpace=wrap;html=1;" parent="1" vertex="1">
          <mxGeometry x="1270" y="640" width="178" height="160" as="geometry" />
        </mxCell>
        <mxCell id="CTcJU4yGuNOKdw21YTPw-9" value="&lt;div&gt;172.16.140.33&lt;/div&gt;&lt;div&gt;22,80&lt;br&gt;&lt;/div&gt;" style="rounded=0;whiteSpace=wrap;html=1;" parent="1" vertex="1">
          <mxGeometry x="1650" y="689" width="160" height="150" as="geometry" />
        </mxCell>
        <mxCell id="CTcJU4yGuNOKdw21YTPw-10" value="red-host-1-student-5&lt;br&gt;&lt;div&gt;172.16.182.106&lt;/div&gt;&lt;div&gt;eth0: 172.16.182.106/27&lt;br&gt;&lt;/div&gt;&lt;div&gt;22, 68F&lt;/div&gt;&lt;div&gt;wget-curl-telnet-ssh-wireshark&lt;/div&gt;&lt;div&gt;&lt;br&gt;&lt;/div&gt;&lt;div&gt;student:password&lt;br&gt;&lt;/div&gt;" style="rounded=0;whiteSpace=wrap;html=1;" parent="1" vertex="1">
          <mxGeometry x="1060" y="640" width="178" height="160" as="geometry" />
        </mxCell>
        <mxCell id="CTcJU4yGuNOKdw21YTPw-11" value="&lt;div&gt;red-host-3-student-5&lt;br&gt;&lt;/div&gt;&lt;div&gt;172.16.182.114&lt;/div&gt;&lt;div&gt;eth0: 172.16.182.114/27&lt;br&gt;&lt;/div&gt;&lt;div&gt;22, 68F&lt;/div&gt;&lt;div&gt;wget-curl-telnet-wireshark-ssh&lt;br&gt;&lt;/div&gt;&lt;div&gt;&lt;br&gt;&lt;/div&gt;&lt;div&gt;student:password&lt;br&gt;&lt;/div&gt;" style="rounded=0;whiteSpace=wrap;html=1;" parent="1" vertex="1">
          <mxGeometry x="1270" y="810" width="178" height="160" as="geometry" />
        </mxCell>
        <mxCell id="CTcJU4yGuNOKdw21YTPw-12" value="&lt;div&gt;red-host-4-student-5&lt;br&gt;&lt;/div&gt;&lt;div&gt;172.16.182.118&lt;/div&gt;&lt;div&gt;eth0: 172.16.182.118/27&lt;br&gt;&lt;/div&gt;&lt;div&gt;22, 68F&lt;br&gt;&lt;/div&gt;&lt;div&gt;wget-curl-telnet-wrieshark-ssh&lt;br&gt;&lt;/div&gt;&lt;div&gt;&lt;br&gt;&lt;/div&gt;&lt;div&gt;student:password&lt;br&gt;&lt;/div&gt;" style="rounded=0;whiteSpace=wrap;html=1;" parent="1" vertex="1">
          <mxGeometry x="1060" y="810" width="178" height="160" as="geometry" />
        </mxCell>
        <mxCell id="CTcJU4yGuNOKdw21YTPw-13" value="&lt;div&gt;red-int-dmz2-host-2&lt;br&gt;&lt;/div&gt;&lt;div&gt;172.16.140.35&lt;/div&gt;&lt;div&gt;eth0: 172.16.140.35/27&lt;br&gt;&lt;/div&gt;&lt;div&gt;22, 68F&lt;/div&gt;&lt;div&gt;wget-curl-wireshark-telnet-ssh&lt;/div&gt;&lt;div&gt;&lt;br&gt;&lt;/div&gt;&lt;div&gt;student:password&lt;br&gt;&lt;/div&gt;" style="rounded=0;whiteSpace=wrap;html=1;" parent="1" vertex="1">
          <mxGeometry x="1851" y="688" width="160" height="150" as="geometry" />
        </mxCell>
        <mxCell id="CTcJU4yGuNOKdw21YTPw-14" value="&lt;div&gt;red-dmz-host-1&lt;/div&gt;&lt;div&gt;172.16.101.30&lt;/div&gt;&lt;div&gt;eth0:172.16.101.2/27&lt;br&gt;&lt;/div&gt;&lt;div&gt;22&lt;/div&gt;&lt;div&gt;filtered: 68&lt;br&gt;&lt;/div&gt;&lt;div&gt;wget-curl-telnet-wireshark&lt;/div&gt;&lt;div&gt;&lt;br&gt;&lt;/div&gt;&lt;div&gt;student : password&lt;/div&gt;" style="rounded=0;whiteSpace=wrap;html=1;" parent="1" vertex="1">
          <mxGeometry x="317" y="610" width="170" height="160" as="geometry" />
        </mxCell>
        <mxCell id="CTcJU4yGuNOKdw21YTPw-16" value="" style="endArrow=none;html=1;rounded=0;exitX=1;exitY=0.5;exitDx=0;exitDy=0;entryX=0;entryY=0.5;entryDx=0;entryDy=0;" parent="1" source="RSi6jhLw-0SFx1MJ1rM7-12" target="RSi6jhLw-0SFx1MJ1rM7-14" edge="1">
          <mxGeometry width="50" height="50" relative="1" as="geometry">
            <mxPoint x="540" y="322" as="sourcePoint" />
            <mxPoint x="740" y="318" as="targetPoint" />
          </mxGeometry>
        </mxCell>
        <mxCell id="CTcJU4yGuNOKdw21YTPw-17" value="eth1: 172.16.120.6/30" style="text;html=1;align=center;verticalAlign=middle;resizable=0;points=[];autosize=1;strokeColor=none;fillColor=none;" parent="1" vertex="1">
          <mxGeometry x="499" y="297" width="140" height="30" as="geometry" />
        </mxCell>
        <mxCell id="CTcJU4yGuNOKdw21YTPw-18" value="eth0: 172.16.120.5" style="text;html=1;align=center;verticalAlign=middle;resizable=0;points=[];autosize=1;strokeColor=none;fillColor=none;" parent="1" vertex="1">
          <mxGeometry x="627" y="314" width="120" height="30" as="geometry" />
        </mxCell>
        <mxCell id="CTcJU4yGuNOKdw21YTPw-20" value="&lt;div&gt;eth2: 172.16.101.30/27&lt;/div&gt;" style="text;html=1;align=center;verticalAlign=middle;resizable=0;points=[];autosize=1;strokeColor=none;fillColor=none;rotation=90;" parent="1" vertex="1">
          <mxGeometry x="339" y="450" width="150" height="30" as="geometry" />
        </mxCell>
        <mxCell id="CTcJU4yGuNOKdw21YTPw-23" value="" style="endArrow=none;html=1;rounded=0;exitX=1;exitY=0.5;exitDx=0;exitDy=0;entryX=0.009;entryY=0.527;entryDx=0;entryDy=0;entryPerimeter=0;" parent="1" source="RSi6jhLw-0SFx1MJ1rM7-14" target="RSi6jhLw-0SFx1MJ1rM7-16" edge="1">
          <mxGeometry width="50" height="50" relative="1" as="geometry">
            <mxPoint x="936" y="330" as="sourcePoint" />
            <mxPoint x="1160" y="320" as="targetPoint" />
          </mxGeometry>
        </mxCell>
        <mxCell id="CTcJU4yGuNOKdw21YTPw-24" value="eth1: 172.16.120.10" style="text;html=1;align=center;verticalAlign=middle;resizable=0;points=[];autosize=1;strokeColor=none;fillColor=none;" parent="1" vertex="1">
          <mxGeometry x="950" y="298" width="130" height="30" as="geometry" />
        </mxCell>
        <mxCell id="CTcJU4yGuNOKdw21YTPw-25" value="eth0: 172.16.120.9" style="text;html=1;align=center;verticalAlign=middle;resizable=0;points=[];autosize=1;strokeColor=none;fillColor=none;" parent="1" vertex="1">
          <mxGeometry x="1050" y="320" width="120" height="30" as="geometry" />
        </mxCell>
        <mxCell id="CTcJU4yGuNOKdw21YTPw-37" value="" style="endArrow=none;html=1;rounded=0;entryX=0.462;entryY=0.994;entryDx=0;entryDy=0;entryPerimeter=0;" parent="1" target="RSi6jhLw-0SFx1MJ1rM7-16" edge="1">
          <mxGeometry width="50" height="50" relative="1" as="geometry">
            <mxPoint x="1256" y="610" as="sourcePoint" />
            <mxPoint x="1250" y="470" as="targetPoint" />
          </mxGeometry>
        </mxCell>
        <mxCell id="CTcJU4yGuNOKdw21YTPw-38" value="eth2: 172.16.140.6" style="text;html=1;align=center;verticalAlign=middle;resizable=0;points=[];autosize=1;strokeColor=none;fillColor=none;rotation=0;" parent="1" vertex="1">
          <mxGeometry x="1360" y="268" width="120" height="30" as="geometry" />
        </mxCell>
        <mxCell id="CTcJU4yGuNOKdw21YTPw-39" value="eth0: 172.16.140.5" style="text;html=1;align=center;verticalAlign=middle;resizable=0;points=[];autosize=1;strokeColor=none;fillColor=none;rotation=0;" parent="1" vertex="1">
          <mxGeometry x="1600" y="268" width="120" height="30" as="geometry" />
        </mxCell>
        <mxCell id="CTcJU4yGuNOKdw21YTPw-41" value="" style="endArrow=none;html=1;rounded=0;" parent="1" edge="1">
          <mxGeometry width="50" height="50" relative="1" as="geometry">
            <mxPoint x="1822" y="649" as="sourcePoint" />
            <mxPoint x="1822" y="389" as="targetPoint" />
          </mxGeometry>
        </mxCell>
        <mxCell id="CTcJU4yGuNOKdw21YTPw-43" value="eth1: 172.16.140.62" style="text;html=1;align=center;verticalAlign=middle;resizable=0;points=[];autosize=1;strokeColor=none;fillColor=none;rotation=90;" parent="1" vertex="1">
          <mxGeometry x="1765" y="459" width="130" height="30" as="geometry" />
        </mxCell>
        <mxCell id="RSi6jhLw-0SFx1MJ1rM7-1" value="" style="endArrow=none;html=1;rounded=0;entryX=0.5;entryY=1;entryDx=0;entryDy=0;" parent="1" target="RSi6jhLw-0SFx1MJ1rM7-12" edge="1">
          <mxGeometry width="50" height="50" relative="1" as="geometry">
            <mxPoint x="403" y="600" as="sourcePoint" />
            <mxPoint x="402" y="400" as="targetPoint" />
          </mxGeometry>
        </mxCell>
        <mxCell id="RSi6jhLw-0SFx1MJ1rM7-2" value="" style="endArrow=none;html=1;rounded=0;exitX=1;exitY=0.5;exitDx=0;exitDy=0;entryX=0;entryY=0.5;entryDx=0;entryDy=0;" parent="1" source="RSi6jhLw-0SFx1MJ1rM7-16" target="RSi6jhLw-0SFx1MJ1rM7-17" edge="1">
          <mxGeometry width="50" height="50" relative="1" as="geometry">
            <mxPoint x="1390" y="330" as="sourcePoint" />
            <mxPoint x="1730" y="320" as="targetPoint" />
          </mxGeometry>
        </mxCell>
        <mxCell id="RSi6jhLw-0SFx1MJ1rM7-3" value="eth1: 172.16.182.126" style="text;html=1;align=center;verticalAlign=middle;resizable=0;points=[];autosize=1;strokeColor=none;fillColor=none;rotation=90;" parent="1" vertex="1">
          <mxGeometry x="1200" y="450" width="140" height="30" as="geometry" />
        </mxCell>
        <mxCell id="RSi6jhLw-0SFx1MJ1rM7-7" value="" style="endArrow=none;html=1;rounded=0;entryX=0.5;entryY=1;entryDx=0;entryDy=0;exitX=0.5;exitY=0;exitDx=0;exitDy=0;" parent="1" source="RSi6jhLw-0SFx1MJ1rM7-12" edge="1">
          <mxGeometry width="50" height="50" relative="1" as="geometry">
            <mxPoint x="400" y="230" as="sourcePoint" />
            <mxPoint x="403" y="-80" as="targetPoint" />
          </mxGeometry>
        </mxCell>
        <mxCell id="RSi6jhLw-0SFx1MJ1rM7-12" value="&lt;div&gt;RED-SCR&lt;/div&gt;&lt;div&gt;&lt;br&gt;&lt;/div&gt;&lt;div&gt;&lt;div&gt;172.16.120.1&lt;/div&gt;&lt;div&gt;22, 179F&lt;br&gt;&lt;/div&gt;&lt;div&gt;wget-tcpdump-telnet-curl&lt;br&gt;&lt;/div&gt;vyos : password&lt;/div&gt;&lt;div&gt;&lt;br&gt;&lt;/div&gt;" style="ellipse;whiteSpace=wrap;html=1;" parent="1" vertex="1">
          <mxGeometry x="297" y="235" width="212" height="165" as="geometry" />
        </mxCell>
        <mxCell id="RSi6jhLw-0SFx1MJ1rM7-14" value="RED-IPS&lt;div&gt;172.16.120.5&lt;/div&gt;&lt;div&gt;eth0: 172.16.120.5/30&lt;/div&gt;&lt;div&gt;eth1: 172.16.120.10/30&lt;br&gt;&lt;/div&gt;&lt;div&gt;22&lt;/div&gt;&lt;div&gt;wget-curl-telnet-tcpdump&lt;/div&gt;&lt;div&gt;&lt;br&gt;&lt;/div&gt;&lt;div&gt;vyos:password&lt;br&gt;&lt;/div&gt;" style="ellipse;whiteSpace=wrap;html=1;" parent="1" vertex="1">
          <mxGeometry x="740" y="235" width="212" height="165" as="geometry" />
        </mxCell>
        <mxCell id="RSi6jhLw-0SFx1MJ1rM7-16" value="&lt;div&gt;RED-POP&lt;br&gt;&lt;/div&gt;&lt;div&gt;172.16.120.9&lt;/div&gt;&lt;div&gt;eth0: 172.16.120.9/30&lt;/div&gt;&lt;div&gt;eth1: 172.16.182.126/27(Hosts)&lt;/div&gt;&lt;div&gt;eth2: 172.16.140.6/30&lt;br&gt;&lt;/div&gt;&lt;div&gt;22&lt;/div&gt;&lt;div&gt;wget-tcpdump-telnet-ssh-curl&lt;/div&gt;&lt;div&gt;&lt;br&gt;&lt;/div&gt;&lt;div&gt;vyos:password&lt;br&gt;&lt;/div&gt;" style="ellipse;whiteSpace=wrap;html=1;" parent="1" vertex="1">
          <mxGeometry x="1158" y="235" width="212" height="165" as="geometry" />
        </mxCell>
        <mxCell id="RSi6jhLw-0SFx1MJ1rM7-17" value="&lt;div&gt;RED-POP2&lt;/div&gt;&lt;div&gt;172.16.140.5&lt;/div&gt;&lt;div&gt;eth0: 172.16.140.5/30(DMZ)&lt;/div&gt;&lt;div&gt;eth1: 172.16.140.62/27(DMZ2)&lt;br&gt;&lt;/div&gt;&lt;div&gt;22&lt;/div&gt;&lt;div&gt;wget-curl-telnet-ssh-tcpdump&lt;/div&gt;&lt;div&gt;&lt;br&gt;&lt;/div&gt;&lt;div&gt;vyos:password&lt;br&gt;&lt;/div&gt;" style="ellipse;whiteSpace=wrap;html=1;" parent="1" vertex="1">
          <mxGeometry x="1720" y="235" width="212" height="165" as="geometry" />
        </mxCell>
        <mxCell id="T0WTCyAwHoFXnaM4Mq35-1" value="" style="ellipse;shape=cloud;whiteSpace=wrap;html=1;" vertex="1" parent="1">
          <mxGeometry x="343" y="40" width="120" height="80" as="geometry" />
        </mxCell>
        <mxCell id="T0WTCyAwHoFXnaM4Mq35-2" value="" style="endArrow=none;html=1;rounded=0;" edge="1" parent="1">
          <mxGeometry width="50" height="50" relative="1" as="geometry">
            <mxPoint x="1650" y="649" as="sourcePoint" />
            <mxPoint x="2010" y="649" as="targetPoint" />
          </mxGeometry>
        </mxCell>
        <mxCell id="T0WTCyAwHoFXnaM4Mq35-7" value="eth0: 172.16.120.1" style="text;html=1;align=center;verticalAlign=middle;resizable=0;points=[];autosize=1;strokeColor=none;fillColor=none;rotation=90;" vertex="1" parent="1">
          <mxGeometry x="354" y="160" width="120" height="30" as="geometry" />
        </mxCell>
        <mxCell id="T0WTCyAwHoFXnaM4Mq35-8" value="" style="endArrow=none;html=1;rounded=0;" edge="1" parent="1">
          <mxGeometry width="50" height="50" relative="1" as="geometry">
            <mxPoint x="280" y="600" as="sourcePoint" />
            <mxPoint x="520" y="600" as="targetPoint" />
          </mxGeometry>
        </mxCell>
        <mxCell id="T0WTCyAwHoFXnaM4Mq35-9" value="&lt;div&gt;172.16.101.0&lt;span style=&quot;white-space: pre;&quot;&gt;	&lt;/span&gt;&lt;span style=&quot;white-space: pre;&quot;&gt;	&lt;/span&gt;&lt;span style=&quot;white-space: pre;&quot;&gt;	&lt;/span&gt;&lt;span style=&quot;white-space: pre;&quot;&gt;(.1-.30)&lt;/span&gt;&lt;span style=&quot;white-space: pre;&quot;&gt;	DMZ&lt;/span&gt;&amp;nbsp;&amp;nbsp;&amp;nbsp;&amp;nbsp;&amp;nbsp;&amp;nbsp;&amp;nbsp;&amp;nbsp;&amp;nbsp;&amp;nbsp;&amp;nbsp; &lt;br&gt;&lt;/div&gt;" style="text;html=1;strokeColor=none;fillColor=none;align=center;verticalAlign=middle;whiteSpace=wrap;rounded=0;" vertex="1" parent="1">
          <mxGeometry x="282" y="580" width="260" height="30" as="geometry" />
        </mxCell>
        <mxCell id="T0WTCyAwHoFXnaM4Mq35-13" value="" style="endArrow=none;html=1;rounded=0;" edge="1" parent="1">
          <mxGeometry width="50" height="50" relative="1" as="geometry">
            <mxPoint x="1070" y="610" as="sourcePoint" />
            <mxPoint x="1480" y="610" as="targetPoint" />
          </mxGeometry>
        </mxCell>
        <mxCell id="T0WTCyAwHoFXnaM4Mq35-14" value="&lt;div&gt;172.16.140.62/27&lt;span style=&quot;white-space: pre;&quot;&gt;	&lt;/span&gt;&lt;span style=&quot;white-space: pre;&quot;&gt;	&lt;/span&gt;&lt;span style=&quot;white-space: pre;&quot;&gt;	&lt;/span&gt;&lt;span style=&quot;white-space: pre;&quot;&gt;(.33-.62)&lt;/span&gt;&lt;span style=&quot;white-space: pre;&quot;&gt;	DMZ2&lt;/span&gt;&amp;nbsp;&amp;nbsp;&amp;nbsp;&amp;nbsp;&amp;nbsp;&amp;nbsp;&amp;nbsp;&amp;nbsp;&amp;nbsp;&amp;nbsp;&amp;nbsp; &lt;br&gt;&lt;/div&gt;" style="text;html=1;strokeColor=none;fillColor=none;align=center;verticalAlign=middle;whiteSpace=wrap;rounded=0;" vertex="1" parent="1">
          <mxGeometry x="1640" y="626" width="390" height="30" as="geometry" />
        </mxCell>
        <mxCell id="T0WTCyAwHoFXnaM4Mq35-15" value="&lt;div&gt;BLUE_SCR-Router&lt;/div&gt;&lt;div&gt;&lt;br&gt;&lt;/div&gt;&lt;div&gt;&lt;div&gt;172.16.20.0&lt;/div&gt;&lt;div&gt;&lt;br&gt;&lt;/div&gt;&lt;/div&gt;&lt;div&gt;&lt;br&gt;&lt;/div&gt;" style="ellipse;whiteSpace=wrap;html=1;" vertex="1" parent="1">
          <mxGeometry x="296" y="-650" width="212" height="165" as="geometry" />
        </mxCell>
        <mxCell id="T0WTCyAwHoFXnaM4Mq35-16" value="" style="endArrow=none;html=1;rounded=0;exitX=0.5;exitY=0;exitDx=0;exitDy=0;entryX=0.5;entryY=1;entryDx=0;entryDy=0;" edge="1" parent="1" source="CTcJU4yGuNOKdw21YTPw-2" target="T0WTCyAwHoFXnaM4Mq35-15">
          <mxGeometry width="50" height="50" relative="1" as="geometry">
            <mxPoint x="350" y="-430" as="sourcePoint" />
            <mxPoint x="400" y="-480" as="targetPoint" />
          </mxGeometry>
        </mxCell>
        <mxCell id="T0WTCyAwHoFXnaM4Mq35-17" value="172.16.20.0/30" style="text;html=1;align=center;verticalAlign=middle;resizable=0;points=[];autosize=1;strokeColor=none;fillColor=none;rotation=90;" vertex="1" parent="1">
          <mxGeometry x="362" y="-450" width="100" height="30" as="geometry" />
        </mxCell>
        <mxCell id="T0WTCyAwHoFXnaM4Mq35-18" value="&lt;div&gt;BLUE_IPS-Router&lt;/div&gt;&lt;div&gt;&lt;br&gt;&lt;/div&gt;&lt;div&gt;&lt;div&gt;172.16.20.0&lt;/div&gt;&lt;div&gt;&lt;br&gt;&lt;/div&gt;&lt;/div&gt;&lt;div&gt;&lt;br&gt;&lt;/div&gt;" style="ellipse;whiteSpace=wrap;html=1;" vertex="1" parent="1">
          <mxGeometry x="740" y="-650" width="212" height="165" as="geometry" />
        </mxCell>
        <mxCell id="T0WTCyAwHoFXnaM4Mq35-19" value="172.16.20.4/30" style="text;html=1;align=center;verticalAlign=middle;resizable=0;points=[];autosize=1;strokeColor=none;fillColor=none;rotation=0;" vertex="1" parent="1">
          <mxGeometry x="571" y="-590" width="100" height="30" as="geometry" />
        </mxCell>
        <mxCell id="T0WTCyAwHoFXnaM4Mq35-20" value="" style="endArrow=none;html=1;rounded=0;exitX=1;exitY=0.5;exitDx=0;exitDy=0;entryX=0;entryY=0.5;entryDx=0;entryDy=0;" edge="1" parent="1" source="T0WTCyAwHoFXnaM4Mq35-15" target="T0WTCyAwHoFXnaM4Mq35-18">
          <mxGeometry width="50" height="50" relative="1" as="geometry">
            <mxPoint x="650" y="-490" as="sourcePoint" />
            <mxPoint x="700" y="-540" as="targetPoint" />
          </mxGeometry>
        </mxCell>
        <mxCell id="T0WTCyAwHoFXnaM4Mq35-21" value="&lt;div&gt;BLUE_POP-Router&lt;/div&gt;&lt;div&gt;&lt;br&gt;&lt;/div&gt;&lt;div&gt;&lt;div&gt;172.16.20.0&lt;/div&gt;&lt;div&gt;&lt;br&gt;&lt;/div&gt;&lt;/div&gt;&lt;div&gt;&lt;br&gt;&lt;/div&gt;" style="ellipse;whiteSpace=wrap;html=1;" vertex="1" parent="1">
          <mxGeometry x="1164" y="-650" width="212" height="165" as="geometry" />
        </mxCell>
        <mxCell id="T0WTCyAwHoFXnaM4Mq35-22" value="" style="endArrow=none;html=1;rounded=0;exitX=1;exitY=0.5;exitDx=0;exitDy=0;entryX=0;entryY=0.5;entryDx=0;entryDy=0;" edge="1" parent="1" source="T0WTCyAwHoFXnaM4Mq35-18" target="T0WTCyAwHoFXnaM4Mq35-21">
          <mxGeometry width="50" height="50" relative="1" as="geometry">
            <mxPoint x="952" y="-575.77" as="sourcePoint" />
            <mxPoint x="1160" y="-570" as="targetPoint" />
          </mxGeometry>
        </mxCell>
        <mxCell id="T0WTCyAwHoFXnaM4Mq35-23" value="172.16.20.8/30" style="text;html=1;align=center;verticalAlign=middle;resizable=0;points=[];autosize=1;strokeColor=none;fillColor=none;rotation=0;" vertex="1" parent="1">
          <mxGeometry x="1010" y="-590" width="100" height="30" as="geometry" />
        </mxCell>
        <mxCell id="T0WTCyAwHoFXnaM4Mq35-26" value="&lt;div&gt;Blue_DMZ_Host-1&lt;/div&gt;&lt;div&gt;eth0: 172.06.1.15&lt;br&gt;&lt;/div&gt;" style="whiteSpace=wrap;html=1;aspect=fixed;" vertex="1" parent="1">
          <mxGeometry x="-380" y="-360" width="160" height="160" as="geometry" />
        </mxCell>
        <mxCell id="T0WTCyAwHoFXnaM4Mq35-30" value="&lt;div&gt;.30&lt;/div&gt;" style="text;html=1;strokeColor=none;fillColor=none;align=center;verticalAlign=middle;whiteSpace=wrap;rounded=0;" vertex="1" parent="1">
          <mxGeometry x="255" y="-582.5" width="60" height="30" as="geometry" />
        </mxCell>
        <mxCell id="T0WTCyAwHoFXnaM4Mq35-31" value=".22" style="text;html=1;strokeColor=none;fillColor=none;align=center;verticalAlign=middle;whiteSpace=wrap;rounded=0;" vertex="1" parent="1">
          <mxGeometry x="386" y="-673" width="60" height="30" as="geometry" />
        </mxCell>
        <mxCell id="T0WTCyAwHoFXnaM4Mq35-32" value="&lt;div&gt;Blue_EXT_SNSR-1&lt;/div&gt;&lt;div&gt;Mgmt - 172.16.20.20&lt;/div&gt;&lt;div&gt;Mon - 172.165.20.21&lt;br&gt;&lt;/div&gt;" style="whiteSpace=wrap;html=1;aspect=fixed;" vertex="1" parent="1">
          <mxGeometry x="-40" y="-330" width="160" height="160" as="geometry" />
        </mxCell>
        <mxCell id="T0WTCyAwHoFXnaM4Mq35-33" value="" style="shape=partialRectangle;whiteSpace=wrap;html=1;bottom=0;right=0;fillColor=none;" vertex="1" parent="1">
          <mxGeometry x="40" y="-560" width="260" height="200" as="geometry" />
        </mxCell>
        <mxCell id="T0WTCyAwHoFXnaM4Mq35-36" value="" style="line;strokeWidth=4;html=1;perimeter=backbonePerimeter;points=[];outlineConnect=0;" vertex="1" parent="1">
          <mxGeometry x="-40" y="-365" width="160" height="10" as="geometry" />
        </mxCell>
        <mxCell id="T0WTCyAwHoFXnaM4Mq35-37" value="&lt;div&gt;&amp;nbsp;&amp;nbsp; 172.16.20.16&lt;span style=&quot;white-space: pre;&quot;&gt;	&lt;/span&gt;&lt;span style=&quot;white-space: pre;&quot;&gt;(.17-.22)&lt;/span&gt;&lt;span style=&quot;white-space: pre;&quot;&gt;	&lt;/span&gt;&amp;nbsp;&amp;nbsp;&amp;nbsp;&amp;nbsp;&amp;nbsp;&amp;nbsp;&amp;nbsp;&amp;nbsp;&amp;nbsp;&amp;nbsp; &lt;br&gt;&lt;/div&gt;" style="text;html=1;strokeColor=none;fillColor=none;align=center;verticalAlign=middle;whiteSpace=wrap;rounded=0;" vertex="1" parent="1">
          <mxGeometry x="-81" y="-383" width="260" height="30" as="geometry" />
        </mxCell>
        <mxCell id="T0WTCyAwHoFXnaM4Mq35-38" value="172.16.20.16/29" style="text;html=1;strokeColor=none;fillColor=none;align=center;verticalAlign=middle;whiteSpace=wrap;rounded=0;" vertex="1" parent="1">
          <mxGeometry x="70" y="-580" width="60" height="30" as="geometry" />
        </mxCell>
      </root>
    </mxGraphModel>
  </diagram>
</mxfile>
